<svg width="533" height="148" viewBox="0 0 533 148" fill="none" xmlns="http://www.w3.org/2000/svg">
<rect width="30.1457" height="147.792" fill="#861616"/>
<rect x="502.43" width="30.1457" height="147.792" fill="#861616"/>
<rect x="14.8721" y="10.1567" width="502.428" height="127.967" fill="#B11717"/>
<path fill-rule="evenodd" clip-rule="evenodd" d="M60.58 32.0467L60.58 23H34.0016L34.1445 69.3842L30.1445 69.3965L30.0015 23H30V19H60.58V18.9062H64.58L64.58 36.1132H60.58V36.0467L46.5879 36.0467V32.0467L60.58 32.0467ZM30.1445 77.501V123.461V127.461H60.5801V127.5H64.5801V110.848H63.9445V110.844H46.5879V114.844H60.5801V123.461H34.1445V77.501H30.1445ZM502.211 77.8697V123.011V123.83V127.011H472V127.024H468V126.236V112.719V110H472L486.391 110V114H472V123.011H498.211V77.8697H502.211ZM503 68.9599V23V19H472L468 19V19.8999V33.4175V36.0243H468.63V36.0467L485.986 36.0467V32.0467L472 32.0467V23H499V68.9599H503Z" fill="white"/>
<path d="M108.238 90V55.994H112.844V90H108.238ZM130.19 90V55.994H134.796V90H130.19ZM111.374 74.516V70.302H131.317V74.516H111.374ZM158.318 90.49C155.901 90.49 153.647 90.049 151.556 89.167C149.466 88.2523 147.636 86.9947 146.068 85.394C144.5 83.7607 143.275 81.8823 142.393 79.759C141.544 77.6357 141.119 75.3653 141.119 72.948C141.119 70.498 141.544 68.2277 142.393 66.137C143.275 64.0137 144.484 62.1517 146.019 60.551C147.587 58.9503 149.4 57.709 151.458 56.827C153.549 55.945 155.803 55.504 158.22 55.504C160.638 55.504 162.875 55.945 164.933 56.827C167.024 57.709 168.853 58.9503 170.421 60.551C171.989 62.1517 173.214 64.0137 174.096 66.137C174.978 68.2603 175.419 70.547 175.419 72.997C175.419 75.4143 174.978 77.6847 174.096 79.808C173.214 81.9313 171.989 83.7933 170.421 85.394C168.886 86.9947 167.073 88.2523 164.982 89.167C162.924 90.049 160.703 90.49 158.318 90.49ZM158.22 86.08C160.67 86.08 162.81 85.5247 164.639 84.414C166.501 83.2707 167.971 81.719 169.049 79.759C170.127 77.7663 170.666 75.496 170.666 72.948C170.666 71.0533 170.356 69.322 169.735 67.754C169.115 66.1533 168.249 64.765 167.138 63.589C166.028 62.413 164.721 61.5147 163.218 60.894C161.716 60.2407 160.05 59.914 158.22 59.914C155.803 59.914 153.663 60.4693 151.801 61.58C149.972 62.6907 148.518 64.226 147.44 66.186C146.395 68.146 145.872 70.4 145.872 72.948C145.872 74.8427 146.166 76.6067 146.754 78.24C147.375 79.8407 148.224 81.229 149.302 82.405C150.413 83.5483 151.72 84.4467 153.222 85.1C154.758 85.7533 156.424 86.08 158.22 86.08ZM188.831 90L177.708 55.994H182.314L191.134 83.728H189.811L198.484 55.994H201.816L210.489 83.728H209.215L218.035 55.994H222.592L211.518 90H208.235L199.513 62.315H200.787L192.114 90H188.831ZM246.692 90V56.974H251.298V90H246.692ZM235.128 60.208V55.994H262.813V60.208H235.128ZM281.297 90.49C278.879 90.49 276.625 90.049 274.535 89.167C272.444 88.2523 270.615 86.9947 269.047 85.394C267.479 83.7607 266.254 81.8823 265.372 79.759C264.522 77.6357 264.098 75.3653 264.098 72.948C264.098 70.498 264.522 68.2277 265.372 66.137C266.254 64.0137 267.462 62.1517 268.998 60.551C270.566 58.9503 272.379 57.709 274.437 56.827C276.527 55.945 278.781 55.504 281.199 55.504C283.616 55.504 285.854 55.945 287.912 56.827C290.002 57.709 291.832 58.9503 293.4 60.551C294.968 62.1517 296.193 64.0137 297.075 66.137C297.957 68.2603 298.398 70.547 298.398 72.997C298.398 75.4143 297.957 77.6847 297.075 79.808C296.193 81.9313 294.968 83.7933 293.4 85.394C291.864 86.9947 290.051 88.2523 287.961 89.167C285.903 90.049 283.681 90.49 281.297 90.49ZM281.199 86.08C283.649 86.08 285.788 85.5247 287.618 84.414C289.48 83.2707 290.95 81.719 292.028 79.759C293.106 77.7663 293.645 75.496 293.645 72.948C293.645 71.0533 293.334 69.322 292.714 67.754C292.093 66.1533 291.227 64.765 290.117 63.589C289.006 62.413 287.699 61.5147 286.197 60.894C284.694 60.2407 283.028 59.914 281.199 59.914C278.781 59.914 276.642 60.4693 274.78 61.58C272.95 62.6907 271.497 64.226 270.419 66.186C269.373 68.146 268.851 70.4 268.851 72.948C268.851 74.8427 269.145 76.6067 269.733 78.24C270.353 79.8407 271.203 81.229 272.281 82.405C273.391 83.5483 274.698 84.4467 276.201 85.1C277.736 85.7533 279.402 86.08 281.199 86.08ZM317.995 76.77V72.752H327.256C328.53 72.752 329.657 72.4907 330.637 71.968C331.65 71.4453 332.434 70.7103 332.989 69.763C333.577 68.8157 333.871 67.6887 333.871 66.382C333.871 65.0753 333.577 63.9483 332.989 63.001C332.434 62.0537 331.65 61.3187 330.637 60.796C329.657 60.2733 328.53 60.012 327.256 60.012H317.995V55.994H327.55C329.641 55.994 331.503 56.4187 333.136 57.268C334.802 58.1173 336.109 59.326 337.056 60.894C338.036 62.4293 338.526 64.2587 338.526 66.382C338.526 68.4727 338.036 70.302 337.056 71.87C336.109 73.4053 334.802 74.614 333.136 75.496C331.503 76.3453 329.641 76.77 327.55 76.77H317.995ZM314.908 90V55.994H319.514V90H314.908ZM344.241 90V55.994H348.847V90H344.241ZM347.377 90V85.786H365.605V90H347.377ZM367.535 90L381.451 55.994H384.783L398.65 90H393.652L382.235 61.237H383.95L372.435 90H367.535ZM374.15 82.307V78.289H392.035V82.307H374.15ZM409.764 76.182L396.387 55.994H401.728L412.508 72.507H410.107L420.936 55.994H426.179L412.704 76.182H409.764ZM408.98 90V73.144H413.586V90H408.98Z" fill="white"/>
</svg>
