<svg width="466" height="131" viewBox="0 0 466 131" fill="none" xmlns="http://www.w3.org/2000/svg">
<rect width="26.3514" height="130.959" fill="#861616"/>
<rect x="439.191" width="26.3514" height="130.959" fill="#861616"/>
<rect x="13" y="9" width="439.19" height="113.391" fill="#B11717"/>
<path fill-rule="evenodd" clip-rule="evenodd" d="M52.7031 27.9408L52.7031 16.7529H56.7031L56.7031 32H52.7031V31.9408L40.7246 31.9408V27.9408L52.7031 27.9408ZM30.3506 20.7616H52.702V16.7616H26.3506V20.7616V61.4865H30.3506V20.7616ZM26.3506 68.6733V109.398V113.398H52.702V109.398H30.3506V68.6733H26.3506ZM52.7031 102.219V113.278H56.7031V98.2218H55.8966V98.2186H40.7246V102.219H52.7031ZM439 69V109V109.725V113H412V113.085H408V112.387V100.409V98H410H412H425.172V102H412V109H435V69H439ZM439.191 61.4865V20.7616V16.7616H412.84V20.7616H435.191V61.4865H439.191ZM412.839 17.5672V16.7698L408.839 16.7698V17.5672V29.5451V31.855L409.645 31.855V31.9408L424.817 31.9408V27.9408L412.839 27.9408V17.5672Z" fill="white"/>
<path d="M169.774 70.8V65.88H181.114C182.674 65.88 184.054 65.56 185.254 64.92C186.494 64.28 187.454 63.38 188.134 62.22C188.854 61.06 189.214 59.68 189.214 58.08C189.214 56.48 188.854 55.1 188.134 53.94C187.454 52.78 186.494 51.88 185.254 51.24C184.054 50.6 182.674 50.28 181.114 50.28H169.774V45.36H181.474C184.034 45.36 186.314 45.88 188.314 46.92C190.354 47.96 191.954 49.44 193.114 51.36C194.314 53.24 194.914 55.48 194.914 58.08C194.914 60.64 194.314 62.88 193.114 64.8C191.954 66.68 190.354 68.16 188.314 69.24C186.314 70.28 184.034 70.8 181.474 70.8H169.774ZM165.994 87V45.36H171.634V87H165.994ZM201.912 87V45.36H207.552V87H201.912ZM205.752 87V81.84H228.072V87H205.752ZM230.434 87L247.474 45.36H251.554L268.534 87H262.414L248.434 51.78H250.534L236.434 87H230.434ZM238.534 77.58V72.66H260.434V77.58H238.534ZM282.143 70.08L265.763 45.36H272.303L285.503 65.58H282.563L295.823 45.36H302.243L285.743 70.08H282.143ZM281.183 87V66.36H286.823V87H281.183Z" fill="white"/>
</svg>
